<?xml version="1.0" standalone="no"?>
<!DOCTYPE svg PUBLIC "-//W3C//DTD SVG 20010904//EN"
 "http://www.w3.org/TR/2001/REC-SVG-20010904/DTD/svg10.dtd">
<svg version="1.0" xmlns="http://www.w3.org/2000/svg"
 width="96.000000pt" height="96.000000pt" viewBox="0 0 96.000000 96.000000"
 preserveAspectRatio="xMidYMid meet">
<metadata>
Created by potrace 1.14, written by Peter Selinger 2001-2017
</metadata>
<g transform="translate(0.000000,96.000000) scale(0.100000,-0.100000)"
fill="#000000" stroke="none">
<path d="M715 921 c-3 -5 -2 -12 3 -15 5 -3 9 1 9 9 0 17 -3 19 -12 6z"/>
<path d="M666 907 c3 -10 9 -15 12 -12 3 3 0 11 -7 18 -10 9 -11 8 -5 -6z"/>
<path d="M627 869 c7 -7 15 -10 18 -7 3 3 -2 9 -12 12 -14 6 -15 5 -6 -5z"/>
<path d="M800 870 c-9 -6 -10 -10 -3 -10 6 0 15 5 18 10 8 12 4 12 -15 0z"/>
<path d="M60 814 c-15 -7 -30 -19 -34 -29 -3 -9 -6 -147 -6 -305 0 -348 -7
-330 127 -330 68 0 83 -3 83 -15 0 -19 -30 -32 -91 -40 -54 -7 -74 -20 -84
-55 l-7 -25 24 28 c18 22 36 30 88 38 71 11 90 22 90 51 0 17 7 19 72 16 71
-3 72 -3 73 -30 1 -16 -3 -28 -9 -29 -6 -1 -31 -2 -56 -4 -60 -3 -58 -2 -65
-25 -5 -16 -15 -20 -51 -20 -25 0 -43 -4 -40 -8 7 -11 605 -11 612 0 3 4 -14
8 -38 8 -35 0 -45 4 -53 23 -9 19 -18 22 -70 23 -59 1 -60 1 -60 30 l0 29 173
5 c157 5 175 7 188 24 11 16 14 76 14 313 0 280 -1 294 -20 313 -11 11 -28 20
-37 21 -10 0 -193 1 -407 2 -272 1 -397 -1 -416 -9z"/>
</g>
</svg>
